<svg xmlns="http://www.w3.org/2000/svg" width="128" height="40"><g fill="none"><path fill="#000" d="M123.503 40H4.176C1.99 40 .2 38.2.2 36V4c0-2.2 1.79-4 3.977-4h119.327c2.187 0 3.977 1.8 3.977 4v32c0 2.2-1.79 4-3.977 4z"/><path fill="#FFF" d="M27.047 19.8c0-3.1 2.586-4.6 2.685-4.7-1.491-2.1-3.68-2.4-4.475-2.5-1.889-.2-3.778 1.1-4.673 1.1-.995 0-2.486-1.1-4.077-1.1-2.088 0-3.978 1.2-5.072 3.1-2.187 3.8-.596 9.4 1.492 12.5 1.094 1.5 2.287 3.2 3.878 3.1 1.591-.1 2.188-1 4.077-1 1.89 0 2.387 1 4.077 1s2.784-1.5 3.779-3c1.193-1.7 1.69-3.4 1.69-3.5-.1-.1-3.38-1.3-3.38-5zm-3.082-9.2c.795-1.1 1.392-2.5 1.292-4-1.193.1-2.784.8-3.58 1.9-.795.9-1.491 2.4-1.292 3.8 1.293.1 2.685-.7 3.58-1.7zM49.72 31.1h-2.188l-1.194-3.8h-4.176l-1.094 3.8H38.98l4.176-12.9h2.586l3.977 12.9zm-3.78-5.4l-1.093-3.4c-.1-.3-.298-1.2-.696-2.4-.1.5-.299 1.4-.597 2.4l-1.094 3.4h3.48zm14.42.7c0 1.6-.398 2.8-1.293 3.8-.796.8-1.69 1.2-2.884 1.2-1.193 0-2.088-.4-2.586-1.3V35H51.51V25c0-1 0-2-.1-3.1h1.79l.1 1.5c.696-1.1 1.69-1.7 3.083-1.7 1.094 0 1.988.4 2.685 1.3.895.8 1.292 1.9 1.292 3.4zm-2.089 0c0-.9-.199-1.7-.597-2.2-.397-.6-.994-.9-1.79-.9-.497 0-.994.2-1.392.5-.397.3-.696.8-.795 1.3-.1.3-.1.5-.1.6v1.6c0 .7.2 1.2.597 1.7.398.5.994.7 1.591.7.796 0 1.392-.3 1.79-.9.497-.6.696-1.4.696-2.4zM71 26.4c0 1.6-.399 2.8-1.294 3.8-.795.8-1.69 1.2-2.883 1.2s-2.088-.4-2.586-1.3V35H62.15V25c0-1 0-2-.1-3.1h1.79l.1 1.5c.696-1.1 1.69-1.7 3.083-1.7 1.093 0 1.988.4 2.684 1.3.895.8 1.293 1.9 1.293 3.4zm-2.089 0c0-.9-.199-1.7-.597-2.2-.397-.6-.994-.9-1.79-.9-.497 0-.994.2-1.392.5-.397.3-.696.8-.795 1.3-.1.3-.1.5-.1.6v1.6c0 .7.2 1.2.597 1.7.398.5.994.7 1.591.7.796 0 1.392-.3 1.79-.9.497-.6.696-1.4.696-2.4zm14.021 1.1c0 1.1-.398 2-1.094 2.7-.795.8-1.989 1.1-3.48 1.1-1.392 0-2.486-.3-3.282-.8l.497-1.7c.895.5 1.89.8 2.984.8.795 0 1.392-.2 1.79-.5.397-.4.596-.8.596-1.4 0-.5-.199-1-.497-1.3-.398-.4-.995-.7-1.79-1-2.287-.8-3.38-2.1-3.38-3.7 0-1.1.397-1.9 1.192-2.6.796-.7 1.79-1 3.182-1 1.194 0 2.089.2 2.884.6l-.497 1.7c-.696-.4-1.492-.6-2.486-.6-.696 0-1.293.2-1.69.5-.299.3-.498.7-.498 1.2s.2.9.597 1.3c.298.3.994.6 1.89 1 1.093.4 1.889 1 2.485 1.6.299.5.597 1.2.597 2.1zm6.762-4.1h-2.287v4.5c0 1.1.397 1.7 1.193 1.7.398 0 .696 0 .895-.1l.1 1.6c-.399.2-.896.2-1.592.2-.795 0-1.491-.2-1.89-.7-.496-.5-.695-1.3-.695-2.5v-4.7h-1.392v-1.6h1.392v-1.7l1.989-.6v2.3h2.287v1.6zm10.242 3c0 1.4-.398 2.6-1.193 3.5-.895.9-1.99 1.4-3.381 1.4-1.392 0-2.486-.5-3.282-1.4-.795-.9-1.193-2-1.193-3.4s.398-2.6 1.293-3.5c.795-.9 1.988-1.4 3.38-1.4 1.393 0 2.487.5 3.282 1.4.696.9 1.094 2 1.094 3.4zm-2.188.1c0-.9-.199-1.6-.596-2.2a2.13 2.13 0 00-1.89-1.1c-.795 0-1.491.4-1.89 1.1-.397.6-.596 1.4-.596 2.2 0 .9.2 1.6.597 2.2a2.13 2.13 0 001.89 1.1c.795 0 1.391-.4 1.889-1.1.397-.6.596-1.4.596-2.2zm8.85-2.9c-.199 0-.398-.1-.696-.1-.696 0-1.293.3-1.69.8-.299.5-.497 1.1-.497 1.8V31h-2.089v-6.4c0-1.1 0-2-.1-2.9h1.79l.1 1.8h.1c.199-.6.596-1.1.994-1.5.497-.3.994-.5 1.492-.5h.497v2.1h.1zm9.149 2.4c0 .4 0 .7-.1.9h-6.165c0 .9.298 1.6.895 2.1.497.4 1.193.7 1.989.7.895 0 1.79-.1 2.486-.4l.298 1.4c-.895.4-1.89.6-3.083.6-1.392 0-2.585-.4-3.38-1.3-.796-.8-1.194-2-1.194-3.4s.398-2.6 1.094-3.5c.796-1 1.89-1.5 3.281-1.5 1.293 0 2.387.5 2.984 1.5.696.8.895 1.8.895 2.9zm-1.89-.5c0-.6-.1-1.1-.397-1.6-.398-.6-.895-.9-1.592-.9-.696 0-1.193.3-1.59.8-.299.4-.498 1-.597 1.6h4.176v.1zM45.344 10.3c0 1.1-.298 2-.994 2.6-.597.5-1.492.8-2.685.8-.597 0-1.094 0-1.492-.1V7.4c.497-.1 1.094-.1 1.79-.1 1.094 0 1.89.2 2.486.7.497.5.895 1.3.895 2.3zm-1.094 0c0-.7-.199-1.3-.596-1.7-.398-.4-.995-.6-1.69-.6-.3 0-.598 0-.796.1v4.7h.696c.795 0 1.392-.2 1.79-.6.397-.4.596-1.1.596-1.9zm6.663 1c0 .7-.2 1.3-.597 1.7-.398.5-.994.7-1.69.7-.697 0-1.194-.2-1.592-.7-.397-.4-.596-1-.596-1.7s.199-1.3.596-1.7c.398-.5.995-.7 1.69-.7.697 0 1.194.2 1.592.7.398.4.597 1 .597 1.7zm-.995 0c0-.4-.1-.8-.298-1.1-.199-.4-.497-.5-.895-.5s-.696.2-.895.5c-.199.3-.298.7-.298 1.1 0 .4.1.8.298 1.1.199.4.497.5.895.5s.696-.2.895-.6c.199-.2.298-.6.298-1zM58.57 9l-1.393 4.6h-.895l-.596-2c-.2-.5-.299-1-.398-1.5-.1.5-.199 1-.398 1.5l-.596 2h-.895L51.907 9h.994l.498 2.2.298 1.5c.1-.4.199-.9.398-1.5L54.69 9h.796l.596 2.1c.2.5.299 1 .398 1.5l.298-1.5.597-2.1h1.193zm5.17 4.6h-.994V11c0-.8-.299-1.2-.895-1.2-.298 0-.497.1-.696.3-.2.2-.299.5-.299.8v2.7h-.994V9h.895v.7c.1-.2.298-.4.497-.6.299-.2.597-.3.895-.3.398 0 .796.1 1.094.4.398.3.497.8.497 1.5v2.9zm2.784 0h-.994V6.9h.994zm5.966-2.3c0 .7-.198 1.3-.596 1.7-.398.5-.994.7-1.69.7s-1.194-.2-1.591-.7c-.398-.4-.597-1-.597-1.7s.199-1.3.597-1.7c.397-.4.994-.7 1.69-.7s1.193.2 1.591.7c.398.4.597 1 .597 1.7zm-.994 0c0-.4-.099-.8-.298-1.1-.199-.4-.497-.5-.895-.5s-.696.2-.895.5c-.199.3-.298.7-.298 1.1 0 .4.1.8.298 1.1.2.4.497.5.895.5s.696-.2.895-.6c.199-.2.298-.6.298-1zm5.867 2.3h-.895l-.1-.5c-.297.4-.795.6-1.292.6-.398 0-.795-.1-.994-.4-.2-.3-.398-.6-.398-.9 0-.6.199-1 .696-1.3.497-.3 1.094-.4 1.989-.4v-.1c0-.6-.298-.9-.895-.9-.497 0-.796.1-1.193.3l-.2-.7c.399-.3.896-.4 1.592-.4 1.193 0 1.79.6 1.79 1.9v1.7c-.1.5-.1.8-.1 1.1zM76.37 12v-.7c-1.094 0-1.69.3-1.69.9 0 .2.099.4.198.5.1.1.299.2.497.2.2 0 .398-.1.597-.2.199-.1.298-.3.398-.5V12zm6.76 1.6h-.894v-.7c-.299.6-.796.8-1.492.8-.596 0-.994-.2-1.392-.6-.398-.4-.497-1-.497-1.7s.199-1.3.596-1.8c.398-.4.895-.6 1.393-.6.596 0 .994.2 1.292.6V7h.995v6.6zm-.994-1.9v-1.1c-.1-.2-.199-.4-.397-.6-.2-.2-.398-.2-.696-.2-.398 0-.697.2-.895.5-.2.3-.299.7-.299 1.2s.1.8.299 1.1c.198.3.497.5.895.5.298 0 .596-.1.795-.4.199-.4.298-.7.298-1zm9.646-.4c0 .7-.199 1.3-.597 1.7-.398.5-.994.7-1.69.7s-1.193-.2-1.591-.7c-.398-.4-.597-1-.597-1.7s.199-1.3.597-1.7c.398-.5.994-.7 1.69-.7s1.193.2 1.591.7c.398.4.597 1 .597 1.7zm-1.094 0c0-.4-.1-.8-.298-1.1-.2-.4-.497-.5-.895-.5s-.696.2-.895.5c-.199.3-.298.7-.298 1.1 0 .4.099.8.298 1.1.199.4.497.5.895.5s.696-.2.895-.6c.199-.2.298-.6.298-1zm6.563 2.3h-.994V11c0-.8-.299-1.2-.895-1.2-.299 0-.498.1-.696.3-.2.2-.299.5-.299.8v2.7h-.994V9h.895v.7c.1-.2.298-.4.497-.6.298-.2.597-.3.895-.3.398 0 .795.1 1.094.4.398.3.497.8.497 1.5v2.9zm6.762-3.8h-1.094V12c0 .6.199.8.597.8h.497v.8c-.199.1-.497.1-.796.1-.397 0-.696-.1-.895-.4-.199-.2-.298-.7-.298-1.2V9.8h-.696V9h.696v-.8l.994-.3V9h1.094v.8h-.1zm5.37 3.8h-.995V11c0-.8-.298-1.2-.895-1.2-.497 0-.795.2-.994.7v3.1h-.995V6.9h.995v2.8c.298-.5.795-.8 1.392-.8.398 0 .795.1.994.4.299.3.498.9.498 1.5v2.8zm5.469-2.5v.5h-2.984c0 .5.2.8.398 1 .299.2.597.3.995.3.497 0 .895-.1 1.193-.2l.199.7c-.398.2-.895.3-1.492.3-.696 0-1.293-.2-1.69-.6-.398-.4-.597-1-.597-1.7s.199-1.3.597-1.7c.397-.5.895-.7 1.59-.7.697 0 1.194.2 1.492.7.2.3.299.8.299 1.4zm-.895-.3c0-.3-.1-.6-.2-.8-.198-.3-.397-.4-.795-.4-.298 0-.596.1-.795.4-.2.2-.299.5-.299.8h2.089z"/></g></svg>