<svg xmlns="http://www.w3.org/2000/svg" xmlns:xlink="http://www.w3.org/1999/xlink" width="688" height="489" viewBox="0 0 688 489"><defs><clipPath id="b"><rect width="688" height="489"/></clipPath></defs><g id="a" clip-path="url(#b)"><g transform="translate(122 22)"><path d="M345.649,401.169a52.64,52.64,0,0,1-18.6-3.194c-17.377-7.88-29.615-18.741-41.852-50.686-12.482-33.223-35.978-48.769-58.5-63.89-19.335-12.991-39.4-26.408-56.782-53.88-12.972-20.445-20.069-42.806-20.069-62.612,0-59.63,53.845-106.483,122.375-106.483S394.6,107.277,394.6,166.907h48.95c0-83.7-75.138-149.076-171.325-149.076S100.9,83.212,100.9,166.907c0,26.834,9.3,56.436,26.188,83.057,22.272,35.139,48.46,52.815,69.754,67.084,19.825,13.2,34.02,22.787,41.852,43.658,14.685,38.76,33.531,60.482,66.817,75.6a110.219,110.219,0,0,0,40.139,7.454c54.09,0,97.9-38.121,97.9-85.186H394.6c0,23.426-22.027,42.593-48.95,42.593ZM116.564,31.461,81.809,1.22C33.1,43.6,3,102.166,3,166.907S33.1,290.214,81.809,332.595l34.51-30.028C76.67,267.853,51.95,219.936,51.95,166.907S76.67,65.962,116.564,31.461Zm94.473,135.446c0,29.389,27.412,53.241,61.187,53.241s61.187-23.852,61.187-53.241S306,113.666,272.224,113.666,211.037,137.518,211.037,166.907Z" transform="translate(-0.849 -0.345)" fill="#1b94ed"/><path d="M0,0H444.852V444.852H0Z" fill="none"/></g></g></svg>