<svg xmlns="http://www.w3.org/2000/svg" xmlns:xlink="http://www.w3.org/1999/xlink" width="3143" height="2061" viewBox="0 0 3143 2061"><defs><clipPath id="b"><rect width="3143" height="2061"/></clipPath></defs><g id="a" clip-path="url(#b)"><g transform="translate(139.062 121.628)"><path d="M61.795,1538.742H1531.9V69H61.795ZM836.8,147.095c218.607,1.425,441.468,104.271,571.579,332.075l-.021.011L1043.251,688.046C989.748,602.179,913.58,569.311,842.6,568.7c-129.241-1.079-240.687,102.679-240.635,235.021-.062,136.154,111.75,234.937,234.068,237,73.11,1.215,162.078-39.5,207.274-120.223l365.1,209.39c-132.73,228.789-360.271,332.085-572.867,331.708-337.144-.555-654.293-270.078-654.241-657.31C181.274,419.131,499.7,144.916,836.8,147.095Z" transform="translate(-61.795 -68.999)" fill="#356bb2"/><path d="M632.164,814.158l420.268,524.528h419.514l-.01-1259.63h-419.5V604.443L632.164,79.056H212.336l-.115,1259.63H632.164Z" transform="translate(1363.375 26.283)" fill="#356bb2"/><path d="M155.27,275.459c14.905-2.242,28.773,6.19,37.2,17.942l48.339-27.662c-12.538-20.236-31.967-36.4-55.063-42.9h0c-54.11-15.02-107.842,16.937-118.463,74.7-7.866,66.616,41.373,110.357,98.5,108.6,30.794-2.6,59.064-20.487,75.017-46.872l-48.339-27.924c-8.924,13.187-22.09,18.623-34.46,18.246-22.1-1.079-40.168-22.038-34.23-47.3C127.67,288.08,140.574,276.862,155.27,275.459Z" transform="translate(-17.628 1353.503)" fill="#356bb2"/><path d="M304.233,263.052a90.964,90.964,0,1,0,.22.409A2.493,2.493,0,0,0,304.233,263.052Zm-55.671,78.756a39.789,39.789,0,0,1-39.927-68.837,39.406,39.406,0,0,1,19.89-5.4,40,40,0,0,1,34.5,19.849c.053.094.1.167.157.251A39.839,39.839,0,0,1,248.563,341.808Z" transform="translate(687.676 1358.787)" fill="#356bb2"/><path d="M447.65,263.16a84.634,84.634,0,1,0,.146.231C447.744,263.3,447.692,263.223,447.65,263.16ZM410.4,317.595a39.792,39.792,0,1,1-4.032-30.2,1.276,1.276,0,0,0,.095.168A39.464,39.464,0,0,1,410.4,317.595Z" transform="translate(2046.159 1358.826)" fill="#356bb2"/><path d="M139.606,219.5,83.464,398.989h63.1l9.217-30.093H213.25l9.05,30.093h63.075L229.234,219.5Zm28.773,105.214,16.057-55.691,16.026,55.691Z" transform="translate(143.502 1356.91)" fill="#356bb2"/><path d="M276.226,280.5c.021-32.188-28.961-60.09-60.645-61H104.47V398.989h59.452V346.524H183.3l26.646,52.464h66.124l-34.649-58.855C268.109,323.01,277.242,301.8,276.226,280.5ZM203.42,301.883l-39.5.073V271.843h39.551c7.657.115,13.25,7.562,13.585,13.93C217.267,294.886,210.323,301.736,203.42,301.883Z" transform="translate(342.518 1356.91)" fill="#356bb2"/><path d="M122.435,271.915h56.309V398.988H246.02V271.915h56.257V219.5H122.435Z" transform="translate(512.722 1356.9)" fill="#356bb2"/><path d="M299.416,294.132,238.634,219.5H179.308V398.989h59.326v-74.8l60.782,74.8h59.368V219.5H299.416Z" transform="translate(1051.55 1356.91)" fill="#356bb2"/><path d="M328.131,294.132,267.36,219.5H208.034V398.989H267.36v-74.8l60.771,74.8H387.5V219.5H328.131Z" transform="translate(1323.706 1356.91)" fill="#356bb2"/><path d="M227.631,398.979H384.357V351.06H287V332.174h81.993V290.236H287V271.863h97.358V219.5H227.631Z" transform="translate(1509.372 1356.91)" fill="#356bb2"/><path d="M244.489,271.915h56.319V398.988h67.246V271.915h56.288V219.5H244.489Z" transform="translate(1669.089 1356.9)" fill="#356bb2"/><path d="M398.6,298.058l-30.281-72.126-29.737,72.283c-.073-.326-15.146-78.714-15.146-78.714H263.091c.659,4.054,34.754,179.487,34.754,179.487h48.914l21.556-48.454,21.274,48.454H439.33L473.507,219.5H413.742Z" transform="translate(1845.329 1356.891)" fill="#356bb2"/><path d="M475,280.5c.033-32.188-28.971-60.09-60.645-61h-111.1V398.989h59.431l.137-52.464h19.25l26.648,52.464h66.124L440.18,340.134C466.869,323.01,476,301.8,475,280.5ZM402.18,301.883l-39.5.073V271.843h39.562c7.645.115,13.239,7.562,13.573,13.93C416,294.886,409.061,301.736,402.18,301.883Z" transform="translate(2225.814 1356.91)" fill="#356bb2"/><path d="M502.831,219.5H426.3l-44.757,58.153V219.5H321.48V398.988h60.059V332.2L426.3,398.988h76.536l-69.455-93.912Z" transform="translate(2398.52 1356.9)" fill="#356bb2"/><path d="M323.549,263.011a88.3,88.3,0,1,0,.21.366C323.7,263.251,323.622,263.136,323.549,263.011Zm-55.66,78.755a39.784,39.784,0,1,1-39.906-68.836,39.312,39.312,0,0,1,19.879-5.405,40,40,0,0,1,34.5,19.85,2.137,2.137,0,0,0,.158.251A39.9,39.9,0,0,1,267.889,341.765Z" transform="translate(871.246 1358.829)" fill="#356bb2"/></g></g></svg>