<svg xmlns="http://www.w3.org/2000/svg" xmlns:xlink="http://www.w3.org/1999/xlink" width="3602" height="1309" viewBox="0 0 3602 1309"><defs><clipPath id="b"><rect width="3602" height="1309"/></clipPath></defs><g id="a" clip-path="url(#b)"><g transform="translate(66.609 99.106)"><path d="M1336.124,993.844c-129.468-83.4-305.173-98.036-588.535-19.419C445.5,1045.413,344.784,1090.919,212.51,999.567c-50.817-44.876-69.036-117.13-55.431-221.207C188.633,608.7,273.9,445.421,425.371,264.31,509.911,170.1,588.337,89.245,691.888,56.777,771.253,36.41,763.833,98.782,754.23,107.7c-10.134,0-27.157,1.6-40.313,10.182-10.677,8.281-39.987,35.02-41.561,70.988-2.27,55.061,54.709,43.6,79.287,13.37,26.491-34.068,65.643-99.306,34.846-160.109-12.908-21.642-35.211-36.6-62.9-41.692C628.763-4.977,540.456,40.224,458.951,90.2,280.711,214.016,138.129,385.584,57.451,573.385,10.94,686.7-31.126,849.009,31.925,981.118c48.781,91.665,150.045,140.354,270.862,130.173,84.736-8.9,187.2-36.29,256.114-52.826,68.918-16.566,421.676-137.823,537.584,73.224,0,0,38.543-74.82,134.866-76.416,79.191-7.307,193.437,22.925,276.629,84.027C1480.262,1097.616,1401.68,1036.183,1336.124,993.844Z" transform="translate(-0.001 0.001)" fill="#356bb2"/><path d="M501.036,285.291C435.058,242,302.449,324.76,196.237,466.715,99.109,594.048,57.169,742.039,102.815,810.475c67.892,80.526,193.937-36.6,247.537-99.3l6.916-7.328c36.451-39.152,64.608-86.263,91.869-131.469,0,0,25.052-41.379,26.248-43.292,15.483-2.853,34.133-7.311,55.149-13.361-.3.948-80.4,135.592-72.233,202.422,2.544,20.389.6,94.87,73.32,117.464,96.919,16.244,174.309-58.884,242.584-125.728,0,0,11.634-11.13,18.215-17.484-1.666,6.663-3.836,15.557-3.836,15.557-28.374,98.676,9.873,119.383,33.8,127.02C894.686,856,981.066,750.955,981.349,750.955c-2.244,33.089-8.79,60.459,26.091,82.427,32.92,11.787,66.239-6.185,91.569-23.055,91.226-64.291,164.719-164.923,224.078-251.9h-37.864c-.449,0-93.431,134.774-153.812,164.066-.095,0-11.086,5.641-17.414,1.179-7.841-6.685-4.75-20.589.092-30.436.3-.639,233.137-404.462,233.137-404.462H1237.293s-12.008,19.428-12.987,20.7c-.74-.635-2.5-3.975-3.718-5.576-68.11-94.213-222.347,50.7-338.467,218.758-44.706,64.621-101.625,137.38-160.644,189.9,0,0-87.437,80.148-124.792,22.564-13.657-24.195-9.456-59.567-1.753-82.8,43.5-123.823,118.447-236.194,203.741-303.995,24.073-18.767,50.247-24.195,63.229-16.236,12.378,7.333,14.374,25.46,6.546,37.878-19.863-.635-35.782,5.4-48.716,18.771-25.487,26.739-34.342,52.526-26.239,76.721,39.365,56.018,117.873-54.753,114.076-122.231-1.357-24.195-14.261-47.107-33.528-58.258-28.71-17.18-72.507-12.73-100.851.966-37.947,14.318-98.006,64.286-133.065,103.125-44.136,48.707-119.835,102.812-143.5,96.753,7.737-20.694,71.676-151.51,4.415-200.522Zm530,193.524c21.385-29.6,83.628-108.857,98.8-122.223,51.034-44.9,71.432-25.143,73.2-11.147-47.629,85.3-103.843,183.025-156.7,270.88.108-.313-16.54,25.143-16.54,25.143-23.342,35.638-46.846,66.2-85.185,87.52-5.467,1.6-14.478,2.244-20.476-2.231-7.219-4.775-10.068-12.734-9.255-21.011C917.189,678.38,945.05,594.683,1031.039,478.815ZM433,530.057s-.961,2.875-1.431,3.814c-.122,0-47.933,77.973-47.933,77.973-28.853,38.521-64.878,86.915-109.91,110.14-13.348,4.454-31.8,7.328-41.2-4.441-19.933-23.877-9.66-56.984-1.313-83.714l2.957-9.551c23.93-64.925,61.894-122.231,98.854-175.388a4.856,4.856,0,0,1,1.87-.631,2.583,2.583,0,0,1,.3.957c23.19,44.554,66.674,65.234,99.193,74.8.2,0,.409.317.409.957C434.793,525.921,434.262,527.2,433,530.057Zm45.293-91.978C478.076,438.715,457,487.1,457,487.1c-3.049,2.544-7.868,1.274-13.391,0l-9.464-1.6c-29.719-9.225-52.134-28.962-59.046-52.513-9.529-45.837,29.627-81.805,46.876-94.848,16.554-11.469,42.288-17.514,57.232-5.732,9.216,10.825,12.708,24.826,12.708,40.113C491.916,393.2,485.531,416.429,478.289,438.079ZM1868.047,585.758c-10.6-22.912-35.764-37.556-62.58-35.968-87.085,7.963-172.265,79.578-216.992,182.381C1565,785.014,1552.2,828.615,1543.8,898c27.083-31.184,82.318-82.427,145-110.44,0,0,8.528-66.522,52.021-125.728,16.457-24.517,49.389-63.982,86.371-53.483,32.315,10.825,20.955,100.272-21.989,186.83-31.776,63.669-80.4,127.346-129.6,171.26-43.5,36.921-107.853,81.483-164.158,47.111-35.464-21-53.552-64.938-49.733-121.592,16.945-160.735,90.116-297.606,194.824-453.57,107.965-144.825,226.978-293.47,387.3-372.739,32.7-16.549,62.985-20.368,89.163-10.182,0,0-150.5,82.757-222.242,235.864-18.25,38.839-43.632,91.343-18.071,137.819,13.356,24.186,37.068,26.1,56.166,24.826,87.937-20.376,144.752-102.494,191.172-177.606,26.912-56.975,50.833-113.633,50.833-176.658,0-7.637-.4-17.819-1.039-25.465C2231.83,51.98,2317.985,91.44,2317.985,91.44c67.321,22.29,210.668,132.108,259.023,153.106,23.585-27.37,62.347-68.744,84.175-89.438l-31.6-19.419C2579,104.814,2525.539,75.527,2472.917,46.565c-119.512-65.243-216.8-42.331-266.3-24.5-19.458,7-37.238,13.048-37.238,13.048C2132.633-5,2072.37-1.185,2027.969,9.644c-159.679,45.832-307.931,157.551-466.874,351.4-116.855,151.832-189.34,282.975-227.974,412.517-29.779,87.211-38.83,215.483,33.855,291.56,61.8,64.6,143.742,50.6,201.6,27.378,125.376-61.75,238.06-194.807,294.208-347.914,13.553-45.51,28.589-109.805,5.259-158.83Zm288.3-479.669c-16.6,190.345-164.555,302.077-201.166,310.975-22.186,4.449-60.041-5.41-26.244-85.293,49.765-107.6,134.735-198.939,225.9-245.732C2157.054,94,2156.994,99.078,2156.346,106.089Zm877.668,24.182c-79.587,45.206-162.093,74.481-261.959,64.3-27.675,31.2-54.627,63.347-79.466,96.444,140.172,35.651,288.772-43.606,371.652-119.034C3151.917,95.9,3196.871.1,3196.871.1S3131.155,75.213,3034.014,130.27ZM1529.933,288.779h-104.4l-58.889,95.683h104.377Z" transform="translate(282.52 0.345)" fill="#356bb2"/><path d="M1440.458,992.637c-11.227,7.637-27,1.766-21.1-15.736,14.691-44.562,73.083-135.374,73.083-135.374l162.644-288.468H1543.677c-5.3,8.7-16.618,28.67-16.618,28.67-5.153-8.585-20.566-27.674-26.914-31.8-27.218-17.2-67.145-9.068-94.7,6.524-119.774,70.036-207.16,208.407-276.086,316.316,0,0-72.55,119.952-112.818,128.872-31.44,2.549-28.2-39.8-26.835-49.673,12.156-71.31,40.387-139.1,68.826-200.535A1539.976,1539.976,0,0,0,1242.4,601.2c130.209-124.467,239.978-265.474,256.023-296.984a253.866,253.866,0,0,1-37.873,4.136C1360.382,448.086,1155.394,651.169,1093.247,681.4c27.532-66.222,205.407-382.281,356.771-533.469l23.82-22.925c36.835-35.968,74.994-72.889,104.736-78.939,3.138-.318,7.185,0,10.676,7.333,1.326,28-9.1,48.7-21.06,72.25l-16.762,34.381s23.742-4.458,39.339-9.564c18.089-34.041,38.132-72.25,30.741-117.756-2.463-14.644-13.067-25.782-26.917-28.331-45.156-8.594-94.362,24.817-133.961,51.882l-1.6.948C1255.48,216.68,1083.6,446.494,933.326,760.34c-10.891,8.263-52.971,18.141-60.119,13.361,14.838-30.549,33.523-71.619,42.87-116.181,1.617-12.739,3.123-25.778,3.123-38.508,0-27.4-6.576-53.169-31.114-70.984-28.776-14.326-64.34-7.637-88.319,3.175-107.414,44.562-187.7,154.7-245.633,245.406-31.158,57.628-62.227,119.348-70.828,190.023-6.06,55.375,6.276,91.03,37.766,108.857,32.375,16.54,73.126-.652,89.135-8.92,108.822-57.3,184.86-172.2,244.794-277.238,2.381-.313,35.1-1.261,59.861-7.637a1.518,1.518,0,0,1,1.014.331c-1.418,4.758-14.209,42.966-14.209,42.966-37.987,111.393-55.553,187.156-19.67,232.032,51.274,63.342,136.159-2.218,205.212-88.812-14.819,103.76,38.952,120,79.949,112.054,47.092-12.726,99.563-63.03,123.916-88.8-7.821,30.231-5.7,84.354,37.14,89.755,29.359,5.428,51.334-10.542,76.757-24.234,91.2-49.659,200.372-215.135,228.715-262.977h-37.166C1556.225,874.908,1504.951,954.742,1440.458,992.637ZM621.849,981.555c-5.782-8.6-7.7-17.993-7.892-28.153C612.848,890.987,680,779.22,727.393,718.33h.1c19.858,43.492,64.837,71.449,91.99,83.232C785.764,876.686,670.1,1037.574,621.849,981.555ZM838.52,767.977c-3.21,2.244-59.928-16.866-70.892-69.383-9.3-45.215,21.838-80.543,51.962-98.349,12.93-10.195,32.4-13.683,46.693-8.612,13.26,8.929,16.851,24.856,16.851,42.014,0,10.525-1.4,21.337-2.625,31.2l-.27,2.235A424.072,424.072,0,0,1,838.52,767.977Zm454.918,193.529c-.046,0-10.763,9.546-10.763,9.546-15.3,13.683-31.044,28.322-50.051,21-5.25-1.9-8.943-8.9-9.829-14.331-.866-39.152,16.762-75.429,33.861-110.758l4.386-9.233c49.181-82.118,106.345-178.88,190.3-246.032,14.151-10.208,29.5-18.784,45.709-12.1,3.728,3.5,8.068,9.547,8.068,15.588,0,1.918-1.707,7.006-2.684,8.594-23.451,37.9-45.78,77.673-67.494,115.868C1392.5,815.088,1348.474,893.057,1293.438,961.505Z" transform="translate(1613.702 10.067)" fill="#356bb2"/></g></g></svg>