<svg xmlns="http://www.w3.org/2000/svg" xmlns:xlink="http://www.w3.org/1999/xlink" width="4363" height="2061" viewBox="0 0 4363 2061"><defs><clipPath id="b"><rect width="4363" height="2061"/></clipPath></defs><g id="a" clip-path="url(#b)"><rect width="4363" height="2061" fill="#356bb2"/><g transform="translate(338.907 667.859)"><path d="M435.427,246.593,221.463,383.185,435.427,519.778,221.463,656.371,7.5,518.823,221.463,382.23,7.5,246.593,221.463,110ZM220.508,699.355,434.472,562.762,648.435,699.355,434.472,835.947ZM435.427,518.823,649.39,382.23,435.427,246.593,648.435,110,862.4,246.593,648.435,383.185,862.4,519.778,648.435,656.371Z" transform="translate(-7.5 -110)" fill="#fff"/><path d="M114.5,156.8H287.39c110.8,0,201.546,64,201.546,209.187v30.566c0,147.1-85.012,213.008-197.725,213.008H114.5Zm96.474,82.146V526.457h73.55c63.043,0,105.071-41.073,105.071-131.817v-23.88c0-90.744-43.939-131.817-107.937-131.817Zm328.587,3.821h77.371l12.418,85.013c14.328-58.267,52.536-88.833,120.355-88.833h23.88v97.43H733.466c-78.326,0-97.43,27.7-97.43,105.071V609.559H540.517V241.809h-.955ZM793.643,434.758V424.251c0-123.22,78.326-190.083,185.308-190.083,108.892,0,185.307,66.864,185.307,190.083v10.507c0,120.355-73.55,185.308-185.307,185.308C860.506,619.111,793.643,555.113,793.643,434.758Zm273.186-1.91V423.3c0-67.819-34.387-108.892-88.833-108.892-53.491,0-88.833,37.253-88.833,108.892v9.552c0,65.908,34.387,103.161,88.833,103.161S1066.828,499.712,1066.828,432.848Zm148.055-190.084h79.281l9.552,69.729c19.1-46.8,60.177-78.326,120.355-78.326,93.609,0,154.742,66.864,154.742,191.039v10.507c0,120.355-67.819,184.353-154.742,184.353-58.267,0-97.43-25.791-117.489-67.819V737.555h-93.609l1.91-494.791Zm267.455,190.084v-7.642c0-72.595-37.253-108.892-87.878-108.892-53.491,0-88.833,41.073-88.833,108.892v6.687c0,64.953,34.387,106.026,87.878,106.026C1447.951,536.964,1482.338,501.622,1482.338,432.848ZM1720.181,542.7l-7.641,66.863h-82.147V120.5H1724V308.673c20.059-47.76,61.132-73.55,119.4-73.55,87.878.955,152.831,61.132,152.831,183.4v11.462c0,121.309-61.132,191.039-154.741,191.039C1779.4,619.111,1739.285,590.455,1720.181,542.7Zm177.666-113.668v-9.552c0-66.863-36.3-105.071-87.878-105.071-52.536,0-88.833,42.028-88.833,106.027v7.642c0,67.819,35.342,107.937,87.878,107.937C1864.416,536.964,1897.847,501.622,1897.847,429.028Zm138.5,5.731V424.251c0-123.22,78.327-190.083,185.308-190.083,108.892,0,185.307,66.864,185.307,190.083v10.507c0,120.355-75.46,185.308-185.307,185.308C2103.214,619.111,2036.35,555.113,2036.35,434.758Zm274.141-1.91V423.3c0-67.819-34.387-108.892-88.833-108.892-53.491,0-88.832,37.253-88.832,108.892v9.552c0,65.908,34.387,103.161,88.832,103.161S2310.491,499.712,2310.491,432.848ZM2532.1,419.475,2403.144,242.765h110.8l73.55,110.8,75.46-110.8h108.891l-130.861,174.8L2778.536,608.6H2670.6l-84.057-121.31L2504.4,608.6H2392.637Z" transform="translate(907.558 -20.205)" fill="#fff"/></g></g></svg>