<svg xmlns="http://www.w3.org/2000/svg" xmlns:xlink="http://www.w3.org/1999/xlink" width="688" height="489" viewBox="0 0 688 489"><defs><clipPath id="b"><rect width="688" height="489"/></clipPath></defs><g id="a" clip-path="url(#b)"><g transform="translate(105 12)"><path d="M0,0H477.191V477.191H0Z" fill="none"/><path d="M33.824,399.659V250.537H4V141.181a39.883,39.883,0,0,1,39.766-39.766h59.649a39.883,39.883,0,0,1,39.766,39.766V250.537H113.356V399.659Zm248.537,0v-119.3H342.01l-50.5-151.707a39.952,39.952,0,0,0-37.778-27.24h-2.386a39.764,39.764,0,0,0-37.778,27.24l-50.5,151.707h59.649v119.3ZM73.59,81.532A39.766,39.766,0,1,0,33.824,41.766,39.629,39.629,0,0,0,73.59,81.532Zm178.947,0a39.766,39.766,0,1,0-39.766-39.766A39.628,39.628,0,0,0,252.537,81.532Z" transform="translate(75.532 37.766)" fill="#1b94ed"/></g></g></svg>