<svg xmlns="http://www.w3.org/2000/svg" xmlns:xlink="http://www.w3.org/1999/xlink" width="3602" height="1309" viewBox="0 0 3602 1309"><defs><clipPath id="b"><rect width="3602" height="1309"/></clipPath></defs><g id="a" clip-path="url(#b)"><g transform="translate(55.275 198.712)"><path d="M3006.3,894.7q73.57,7.131,146.975,15.143l107.978-266.622L3363.89,934.44q78.994,9.9,157.776,20.755L3341.727,444.527l180-444.494H3369.279l-1.585,2.183-97.236,240.126L3185.09.067H3034.57l155.392,440.984L3006.313,894.7Zm-113.835-10.448V.032H2742V871.847q75.277,5.811,150.462,12.4M1762.212,834.81c40.618,0,81.189.305,121.689.634V510.6H2064.65V372.26H1883.913V138.532h208.172V.032H1732.864V834.927c9.755,0,19.557-.153,29.348-.117m-467.151,8.452q75.19-2.677,150.544-4.508v-700.2h140.636V.067H1154.425V138.555h140.66V843.262ZM144.334,936.495V409.7L322.489,915.223Q404.669,906,487.167,897.814V.044H342.8V545.719L150.556.044H0V955.43H.9q71.545-9.9,143.43-18.935M1009.34,138.52V.044H650.084v882.8q179.294-15.476,358.965-25.955l0-138.606q-104.174,6.057-207.9,13.864v-221.5H981.894V372.237H801.144V138.52ZM2390.273,711.665V0H2239.154v843.77q180.315,6.621,359.291,18.313V723.392q-103.892-6.709-208.172-11.739" transform="translate(0 0.003)" fill="#356bb2"/></g></g></svg>