<svg xmlns="http://www.w3.org/2000/svg" width="124" height="40"><defs><linearGradient id="a" x1="29.532%" x2="55.094%" y1="-6.096%" y2="92.156%"><stop offset="0%" stop-color="#006884"/><stop offset="100%" stop-color="#8AD1D0"/></linearGradient><linearGradient id="b" x1="-7.528%" x2="91.537%" y1="15.759%" y2="86.25%"><stop offset="0%" stop-color="#24BBB6"/><stop offset="100%" stop-color="#DBE692"/></linearGradient><linearGradient id="c" x1="49.94%" x2="49.94%" y1="105.755%" y2="-3.127%"><stop offset="0%" stop-color="#FCC072"/><stop offset="100%" stop-color="#F58A5B"/></linearGradient><linearGradient id="d" x1="11.149%" x2="90.437%" y1="117.837%" y2="12.103%"><stop offset="0%" stop-color="#712B8F"/><stop offset="100%" stop-color="#EA1D27"/></linearGradient></defs><g fill="none" fill-rule="evenodd"><path fill="#000" fill-rule="nonzero" d="M119.674 40H4.326C2.21 40 .48 38.2.48 36V4c0-2.2 1.73-4 3.845-4h115.348c2.115 0 3.845 1.8 3.845 4v32c0 2.2-1.73 4-3.845 4z"/><path fill="url(#a)" d="M9.9 19.61V9.366c0-.586.481-1.073.962-1.073.48 0 .673.097.961.292l18.552 10.342c.385.195.577.488.577.78 0 .293-.192.586-.577.78L11.823 30.83c-.192.098-.48.293-.961.293-.48 0-.961-.488-.961-1.073V19.61z"/><path fill="url(#b)" d="M21.916 19.707L10.67 8.293h.192c.48 0 .673.097.961.292l13.65 7.61-3.557 3.512z"/><path fill="url(#c)" d="M25.377 23.122l-3.46-3.512L25.472 16l4.902 2.732c.385.195.577.488.577.78 0 .293-.192.586-.577.78l-4.998 2.83z"/><path fill="url(#d)" d="M10.766 30.927l11.15-11.317 3.46 3.512-13.553 7.512c-.288.195-.48.293-1.057.293.096 0 .096 0 0 0z"/><path fill="#FFF" d="M68.825 33.561c-.48-.39-.865-1.073-1.058-1.463l1.538-.683c.097.195.289.487.481.78.385.39.961.78 1.538.78.577 0 1.25-.292 1.634-.78.289-.488.48-.975.48-1.658v-.586c-1.153 1.464-3.556 1.269-4.902-.292-1.441-1.561-1.441-4.196 0-5.757 1.442-1.463 3.557-1.658 4.807-.292v-.683h1.634v7.317c0 1.854-.673 2.927-1.538 3.61-.577.487-1.442.683-2.211.683-.865-.098-1.73-.39-2.403-.976zm40.276.39l1.634-3.902-2.884-6.732h1.634l2.019 4.78 2.018-4.78h1.635l-4.422 10.634H109.1zm-7.786-3.707c-.48-.488-.673-1.17-.673-1.854 0-.585.192-1.17.577-1.56.672-.684 1.634-.976 2.691-.976.673 0 1.25.097 1.73.39 0-1.17-.96-1.659-1.73-1.659-.673 0-1.346.39-1.634 1.074l-1.442-.586c.288-.683 1.057-1.951 2.98-1.951.961 0 1.922.293 2.5.976.576.682.768 1.463.768 2.536v4.098h-1.634v-.683c-.192.292-.577.488-.865.683-.385.195-.865.292-1.346.292-.577-.097-1.442-.292-1.922-.78zM50.08 26.732c0-1.952 1.441-4.098 4.037-4.098 2.5 0 4.037 2.146 4.037 4.098 0 1.95-1.442 4.097-4.037 4.097-2.596 0-4.037-2.146-4.037-4.097zm8.65 0c0-1.952 1.443-4.098 4.038-4.098 2.5 0 4.037 2.146 4.037 4.098 0 1.95-1.442 4.097-4.037 4.097-2.5 0-4.037-2.146-4.037-4.097zm-19.51 2.146c-2.403-2.439-2.307-6.439.096-8.976 1.25-1.268 2.787-1.853 4.421-1.853a5.92 5.92 0 014.23 1.756l-1.154 1.268c-1.73-1.756-4.517-1.658-6.152.098a4.765 4.765 0 000 6.536c1.73 1.854 4.614 1.952 6.345.098.576-.585.769-1.366.865-2.146h-4.037v-1.757h5.67c.097.39.097.878.097 1.366 0 1.464-.577 2.927-1.538 3.903-1.057 1.073-2.595 1.658-4.133 1.658-1.73-.097-3.46-.683-4.71-1.951zm40.66.683c-1.442-1.561-1.442-4.195 0-5.854 1.442-1.56 3.845-1.56 5.19 0 .481.488.77 1.171 1.058 1.854l-5.287 2.244a2.05 2.05 0 001.923 1.268c.865 0 1.442-.293 2.018-1.17l1.442.975c-.192.195-.384.39-.48.585-1.634 1.659-4.422 1.659-5.864.098zm9.997 1.17V19.903h3.46c2.019 0 3.653 1.464 3.653 3.22 0 1.756-1.442 3.22-3.268 3.22h-2.115v4.292h-1.73v.098zm8.074 0V19.903h1.634v10.83H97.95zm-21.724-.194V18.439h1.73v12.098h-1.73zm29.318-3.025c-.384-.292-.961-.39-1.538-.39-1.153 0-1.826.585-1.826 1.268s.673 1.073 1.346 1.073c.96 0 2.018-.78 2.018-1.95zm-49.215-.78c0-1.171-.77-2.44-2.211-2.44-1.442 0-2.211 1.269-2.211 2.44 0 1.17.769 2.439 2.21 2.439 1.347 0 2.212-1.269 2.212-2.44zm8.65 0c0-1.171-.768-2.44-2.21-2.44s-2.21 1.269-2.21 2.44c0 1.17.768 2.439 2.21 2.439s2.21-1.269 2.21-2.44zm8.556.683c0-.098 0-.195.096-.293v-.878c0-.098-.096-.293-.096-.39-.288-.976-1.154-1.659-2.019-1.659-1.153 0-2.114 1.17-2.114 2.44 0 1.365.96 2.438 2.21 2.438.77.098 1.538-.585 1.923-1.658zm7.017-.878l3.557-1.561c-.385-.683-.962-.878-1.442-.878-1.442.097-2.307 1.658-2.115 2.439zM95.26 23.22c0-.976-.77-1.659-1.826-1.659H91.51v3.415h2.019c.96 0 1.73-.78 1.73-1.756z"/><path fill="#FFF" d="M110.35 32h-.096v-.098h.096-.096V32zm0 0c0-.098 0-.098 0 0 0-.098 0-.098 0 0zm0 0v-.098V32zm0-.098V32v-.098zm0 .098v-.098V32zm0 0c0-.098 0-.098 0 0zm0 0c0-.098 0-.098 0 0zm.097 0c0-.098 0-.098 0 0 0-.098 0-.098 0 0 0-.098 0-.098 0 0zm0 0c0-.098 0-.098 0 0zm0-.098V32zm0 .098v-.098V32zm0 0c0-.098 0-.098 0 0 0-.098 0-.098 0 0zm0-.098c0 .098 0 .098 0 0 0 .098 0 .098 0 0zm0 .098c0-.098 0-.098 0 0 0-.098 0-.098 0 0 0-.098 0-.098 0 0 0-.098 0-.098 0 0zm.096 0c0-.098 0-.098 0 0-.096-.098-.096-.098 0 0-.096 0-.096 0 0 0zm0-.098c0 .098 0 .098 0 0 0 .098-.096.098 0 0-.096 0 0 0 0 0zm0 .098v-.098V32v-.098V32v-.098zm0 0c0-.098 0-.098 0 0 0-.098 0-.098 0 0 0-.098 0-.098 0 0 0-.098 0-.098 0 0 0-.098 0-.098 0 0 0-.098 0-.098 0 0 0-.098 0-.098 0 0 0-.098 0-.098 0 0zm.096-.098h-.096.096V32v-.098zm0 .098v-.098V32zm0 0c0-.098 0-.098 0 0 0-.098 0-.098 0 0z"/><path fill="#FFF" fill-rule="nonzero" d="M37.873 10.341c0-1.756 1.25-2.829 2.787-2.829 1.058 0 1.73.488 2.211 1.17l-.769.489c-.288-.39-.769-.683-1.442-.683-1.057 0-1.826.78-1.826 1.951 0 1.17.77 1.951 1.826 1.951.577 0 1.058-.292 1.25-.488v-.878h-1.538v-.878h2.595v2.05c-.48.584-1.25.975-2.21.975-1.635 0-2.884-1.171-2.884-2.83zm6.247 2.732V7.61h3.654v.878h-2.788v1.366h2.692v.878h-2.692v1.56h2.788v.879zm6.345 0V8.488h-1.634V7.61h4.23v.878h-1.635v4.585zm5.864 0V7.61h.96v5.463h-.96zm3.556 0V8.488h-1.634V7.61h4.23v.878h-1.634v4.585zm5.672-2.732c0-1.658 1.153-2.829 2.787-2.829s2.788 1.17 2.788 2.83c0 1.658-1.154 2.829-2.788 2.829s-2.787-1.269-2.787-2.83zm4.517 0c0-1.17-.672-1.95-1.826-1.95-1.057 0-1.826.877-1.826 1.95 0 1.171.673 1.952 1.826 1.952 1.154 0 1.826-.878 1.826-1.952zm5.864 2.732L73.15 9.171v3.902h-.96V7.61h.96l2.788 3.805V7.61h.961v5.463z"/></g></svg>