<svg xmlns="http://www.w3.org/2000/svg" xmlns:xlink="http://www.w3.org/1999/xlink" width="3602" height="1309" viewBox="0 0 3602 1309"><defs><clipPath id="b"><rect width="3602" height="1309"/></clipPath></defs><g id="a" clip-path="url(#b)"><g transform="translate(0.294 172.968)"><path d="M184.878,448.718c0-107.136,78.115-181.946,220.07-181.946,86.618,0,157.495,27.655,195.894,54.746,5.495,3.868,15.3,13.253,9.42,30.706-7.534,18.8-21.351,47.068-31.263,65.433-5.77,10.7-20.5,9.291-28.052,5.466-27.352-13.86-72.215-37.307-113.427-41.631a241.3,241.3,0,0,0-31.429-1.359c-36.294.81-66.618,13.412-77.3,41.1a48.722,48.722,0,0,0-3.448,16.441c-1,36.49,49.786,49.685,111.307,60.256,114.374,19.593,200.9,53.127,200.9,170.847,0,99.971-79.452,190.318-235.123,187.549C299.808,854.255,227,819.58,187.988,785.931c-1.33-1.142-16.182-16.268-8.221-34.459,9.109-23.419,24.489-50.257,36.555-64.507,6.71-9.153,24.416-10.607,33.62-4.9,32.16,19.984,85.085,52.028,146.093,54.154,4.815.166,9.586.2,14.272.072,54.876-1.33,88.077-22.139,87.383-57.19-.592-30.88-44.1-48.919-113.39-61.977-110.505-20.815-199.407-57.241-199.407-168.4M1188.8,601.266c-77.927,1.019-149.374,22.319-151.435,83.219-.021,48.326,39.18,72.063,94.2,68.954,52.78-5.083,93.029-27.973,110.766-58.347,6.558-11.257,7.556-53.38,7.158-71.383-.1-3.832-7.679-11.084-11-12.479-16.557-6.977-28.812-9.132-49.7-9.978M929.508,355.876c36.441-32.608,108.69-83.363,223.837-80.688,151.956,3.16,232.231,74.4,239.708,244.812,3.08,70.277-2.025,266.3-3.239,315.139-.182,7.006-2.552,11.85-12,12.031-25.024,1-82.835.607-109.4.26-13.4-.651-14.959-7.3-15.132-14.265-.116-4.555-.506-18.061-.789-29.072-.151-5.842-5.639-5.676-7.042-4.179-35.645,38.06-94.021,56.438-156.1,56.438-94.352,0-188.417-55.505-188.127-165.425.29-112.573,80.11-168.1,167.8-181.194,56.15-8.358,119.441-.925,167.37,18.119,3.066,1.229,9.327-.549,9.377-4.895.2-14.345-.5-41.682-3.253-54.638-7.036-33.013-34.574-59.576-92.429-66.734a178.016,178.016,0,0,0-35.92-1c-45.991,3.615-101.338,39.476-124.257,52.9-5.394,3.153-13.838.846-16.571-2.675-13.376-17.28-47-67.818-49.642-75.894-2.646-8.054,1.085-14.836,5.791-19.073Zm513.649,209.558c-.9-157,108.488-289.45,286.117-290.615,110.837-.723,191.361,49.526,205.56,73.227,2.886,5.567,1.4,10.216-.592,15.819-9.385,19.811-33.085,58.087-49.974,79.777-7.194,9.24-15,1.323-24.077-4.714-25.182-16.774-73.031-37.286-120.121-37.286-85.431.014-149.049,58.593-148.34,166.365.666,103.42,61.6,160.256,148.637,162.316,45.5,1.142,89.582-25.009,113.3-46.432,7.447-6.5,15.154-3.246,23.664,3.405,16.7,17.07,40.655,43.424,53.936,61.564,8.7,10.079,2.192,19.94-.939,23.9-36.035,45.6-105.632,83.978-197.736,84.5-192.856,1.352-288.525-134.249-289.414-291.807m920.574,284.729c9.052-.68,105.653-14.012,135.3-20.8,7.359-1.678,9.978-7.867,5.862-14-16.556-24.828-60.088-95.336-105.68-158.455C2357.3,598.895,2313.1,547.85,2298.806,528.213c-3.484-4.772-3.3-9.471.5-13.173,27.192-26.607,140.936-138.131,183.7-184.187,16.556-17.916,6.616-25.623-7.447-29.81-27.164-8.1-71.1-18.191-96.088-23.462-10.535-2.227-23.224-1.446-32.435,8.025-42.76,39.874-173.256,170.848-212.211,210-7.013,7.064-11.1,5.495-11.135-4.6-.318-75.483-1.808-398.654-4.5-451.81-.188-7.028-8.639-12.363-13.4-12.617-24.5-1.28-86.377-1.648-110.765-.217-6.833.774-13.361,7.736-13.955,13.622-5.624,85,2.386,708.942,5.726,796.224a11.748,11.748,0,0,0,10.932,11.561c24.329,1.41,84.506,1.316,112.6.788,13.824,0,15.517-9.717,15.517-9.717l2.082-167.428s1.424-7.447,3.731-9.905c9.905-10.665,37.306-40.033,48.991-51.384,2.8-2.726,7.23-2.531,10.094,1.323,13.881,18.726,53.466,79.6,90.159,133.974,33.713,49.946,65.185,94.273,67.384,97.4,5.075,7.23,11.005,7.52,15.472,7.382v-.022Zm-1642.922-.578c8.5.282,72.952.21,101.511.174a14.152,14.152,0,0,0,14.929-13.52c6.067-122.377,3.472-705.023-.36-797.026-.318-7.953-3.724-10.939-9.154-11.662-24.51-3.282-94.165-2.516-116.492,3.326a8.981,8.981,0,0,0-7.078,8.72c-5.467,237.148-1.778,783.889-.621,794.243s6.572,15.386,17.279,15.747h-.014Z" transform="translate(1094.845 -25.444)" fill="#356bb2"/><path d="M92.079,479.5c-39.722.3-73.371-23.368-85.778-60.313q-.69-2.093-1.287-4.215c-13.52-47.314,12.7-96.811,59.685-112.66l753.667-252.5a102.14,102.14,0,0,1,27.525-4.02c40.778-.318,75.352,23.874,88.063,61.6l1.128,3.644c14.1,49.28-20.931,93.269-62.9,107.367-.029.022-7.664,2.6-749.488,255.881A97.526,97.526,0,0,1,92.079,479.5Z" transform="translate(-1.464 101.338)" fill="#356bb2"/><path d="M109.783,533.814c-40.033.289-73.8-23.05-86.06-59.468q-.7-2.078-1.3-4.186A92.871,92.871,0,0,1,82.048,356.394l753.7-254.811a97.058,97.058,0,0,1,29.911-5.011c40.141-.3,75.41,24.221,87.853,61.051l1.157,3.832c7.281,25.458,2.979,54.067-11.5,76.647-10.787,16.788-44.812,31.566-44.812,31.566L141.8,528.355a103.783,103.783,0,0,1-32.015,5.474Z" transform="translate(106.455 417.679)" fill="#356bb2"/><path d="M415.429,960.794a92.532,92.532,0,0,1-88.605-63.069L75.288,150.565l-1.258-4.193a92.65,92.65,0,0,1,176.921-54.92l251.514,747.1.73,2.4c14.127,49.468-12.024,99.2-59,115.031A93.531,93.531,0,0,1,415.429,960.794Z" transform="translate(428.21 -7.689)" fill="#356bb2"/><path d="M363.7,978.139a92.567,92.567,0,0,1-88.641-63.119L23.593,167.888A92.524,92.524,0,0,1,81.8,50.544a93.709,93.709,0,0,1,28.812-4.83,92.517,92.517,0,0,1,88.62,63.068l251.478,747.16a92.627,92.627,0,0,1-87.036,122.189h.029Z" transform="translate(106.043 100.813)" fill="#356bb2"/><path d="M150.576,332.388l175.388-59.967L268.63,102.152,93.039,161.49Z" transform="translate(569.059 452.458)" fill="#356bb2"/><path d="M99.292,351.157,274.666,291.2,216.9,119.627,41.35,178.986Z" transform="translate(247.03 561.329)" fill="#356bb2"/><path d="M132.833,279.31l175.4-59.887L251.573,51.142,75.845,110.017Z" transform="translate(461.938 134.659)" fill="#356bb2"/><path d="M81.792,298.791l175.4-59.887L199.838,68.475,24.11,127.343Z" transform="translate(139.623 242.646)" fill="#356bb2"/></g></g></svg>