<svg xmlns="http://www.w3.org/2000/svg" xmlns:xlink="http://www.w3.org/1999/xlink" width="3602" height="1309" viewBox="0 0 3602 1309"><defs><clipPath id="b"><rect width="3602" height="1309"/></clipPath></defs><g id="a" clip-path="url(#b)"><path d="M602.667,1369.15c-291.731,0-528.237,236.5-528.237,528.23,0,291.764,236.506,528.252,528.237,528.252S1130.9,2189.144,1130.9,1897.38c0-291.71-236.48-528.2-528.244-528.2l.006-.027Zm242.246,761.865a32.909,32.909,0,0,1-45.272,10.955c-124.043-75.812-280.175-92.941-464.048-50.935a32.912,32.912,0,1,1-14.653-64.173c201.22-46.006,373.82-26.206,513.054,58.874a32.925,32.925,0,0,1,10.913,45.291l.006-.011ZM909.568,1987.2a41.211,41.211,0,0,1-56.651,13.56C710.959,1913.5,494.493,1888.224,326.548,1939.2a41.18,41.18,0,1,1-23.932-78.806c191.84-58.206,430.324-30.012,593.384,70.19a41.167,41.167,0,0,1,13.562,56.619l.006-.005Zm5.551-149.773c-170.274-101.123-451.137-110.42-613.684-61.085a49.405,49.405,0,0,1-28.682-94.556c186.592-56.643,496.78-45.7,692.788,70.658a49.407,49.407,0,0,1-50.418,84.983h-.006Zm596.468,19.372c-91.2-21.748-107.441-37.014-107.441-69.086,0-30.307,28.53-50.7,70.957-50.7,41.127,0,81.907,15.482,124.662,47.362a5.958,5.958,0,0,0,4.51,1.1,5.888,5.888,0,0,0,3.943-2.436l44.533-62.774a5.985,5.985,0,0,0-1.135-8.126c-50.885-40.827-108.186-60.681-175.162-60.681-98.478,0-167.265,59.1-167.265,143.656,0,90.675,59.338,122.784,161.878,147.565,87.276,20.105,102,36.947,102,67.053,0,33.36-29.786,54.1-77.719,54.1-53.238,0-96.661-17.929-145.238-60a6.246,6.246,0,0,0-4.384-1.424,5.926,5.926,0,0,0-4.1,2.1l-49.932,59.426a5.923,5.923,0,0,0,.593,8.282c56.518,50.458,126.03,77.106,201.043,77.106,106.116,0,174.689-57.981,174.689-147.722.189-75.758-45.163-117.7-156.244-144.725Zm396.511-89.949c-46,0-83.724,18.119-114.834,55.241v-41.784a5.985,5.985,0,0,0-5.968-5.99h-81.667a5.98,5.98,0,0,0-5.967,5.99v464.266a5.979,5.979,0,0,0,5.967,5.987H1787.3a5.984,5.984,0,0,0,5.968-5.987V2098.022c31.116,34.925,68.85,51.985,114.834,51.985,85.465,0,171.983-65.789,171.983-191.556.126-125.794-86.418-191.605-171.888-191.605Zm77.019,191.6c0,64.043-39.449,108.736-95.936,108.736-55.843,0-97.967-46.723-97.967-108.736s42.124-108.734,97.967-108.734c55.573-.006,95.943,45.714,95.943,108.731Zm316.717-191.6c-110.065,0-196.294,84.752-196.294,192.969,0,107.037,85.635,190.9,194.943,190.9,110.457,0,196.949-84.469,196.949-192.271,0-107.426-85.912-191.589-195.605-191.589Zm0,300.972c-58.543,0-102.679-47.038-102.679-109.405,0-62.631,42.61-108.076,101.328-108.076,58.922,0,103.353,47.034,103.353,109.446,0,62.617-42.893,108.035-102,108.035Zm430.634-293.5H2642.6V1682.44a5.973,5.973,0,0,0-5.96-5.981h-81.655a5.99,5.99,0,0,0-5.986,5.981v91.879h-39.266a5.972,5.972,0,0,0-5.948,5.99v70.185a5.972,5.972,0,0,0,5.948,5.982H2549v181.612c0,73.393,36.528,110.6,108.57,110.6,29.294,0,53.6-6.049,76.5-19.036a5.959,5.959,0,0,0,3.015-5.181v-66.836a5.99,5.99,0,0,0-8.654-5.362,102.9,102.9,0,0,1-47.94,11.568c-26.2,0-37.891-11.9-37.891-38.559V1856.511h89.867a5.967,5.967,0,0,0,5.955-5.987v-70.18a5.788,5.788,0,0,0-5.865-5.987Zm313.122.363V1763.4c0-33.2,12.729-48,41.278-48,17.025,0,30.7,3.381,46.015,8.493a5.973,5.973,0,0,0,7.854-5.692v-68.818a5.978,5.978,0,0,0-4.227-5.735c-16.179-4.813-36.881-9.752-67.878-9.752-75.429,0-115.3,42.479-115.3,122.795v17.283h-39.235a6,6,0,0,0-5.992,5.982v70.547a6.01,6.01,0,0,0,5.992,5.987h39.235V2136.6a5.974,5.974,0,0,0,5.955,5.99h81.667a6,6,0,0,0,5.986-5.99V1856.5h76.249l116.8,280.052c-13.259,29.425-26.3,35.282-44.1,35.282-14.388,0-29.54-4.3-45.032-12.773a6.126,6.126,0,0,0-4.756-.449,6.039,6.039,0,0,0-3.533,3.224l-27.679,60.722a5.939,5.939,0,0,0,2.573,7.728c28.9,15.653,54.98,22.33,87.219,22.33,60.3,0,93.633-28.088,123.016-103.656l141.679-366.1a5.972,5.972,0,0,0-5.544-8.158h-85.017a6,6,0,0,0-5.659,4.012l-87.092,248.768-95.393-248.934a5.961,5.961,0,0,0-5.576-3.846H3045.569l.019-.019Zm-181.539-.363h-81.668a6,6,0,0,0-5.986,5.99V2136.6a6,6,0,0,0,5.986,5.99h81.668a6,6,0,0,0,5.986-5.99V1780.331a5.97,5.97,0,0,0-5.993-5.987Zm-40.371-162.229a58.553,58.553,0,1,0,.032,0Zm715.431,276.786a57.777,57.777,0,1,0-.006,0Zm.315-109.532c-29.437,0-51.711,23.4-51.711,52.058,0,28.643,22.115,51.734,51.415,51.734,29.432,0,51.731-23.383,51.731-52.058,0-28.647-22.14-51.733-51.409-51.733Zm12.743,57.642,16.256,22.758h-13.707l-14.635-20.879H3527.5v20.879h-11.474v-60.33h26.9c14.016,0,23.233,7.172,23.233,19.245.063,9.893-5.677,15.934-13.941,18.327Zm-9.714-27.222H3527.49v19.083h14.963c7.468,0,11.927-3.652,11.927-9.549,0-6.207-4.477-9.533-11.921-9.533Z" transform="translate(-42.884 -1230.525)" fill="#356bb2"/></g></svg>