<svg xmlns="http://www.w3.org/2000/svg" xmlns:xlink="http://www.w3.org/1999/xlink" width="3602" height="1175" viewBox="0 0 3602 1175"><defs><clipPath id="b"><rect width="3602" height="1175"/></clipPath></defs><g id="a" clip-path="url(#b)"><g transform="translate(0.061 301.196)"><path d="M870.418,648.835,709.9,119.079l-221.075-.01-160.5,529.757h155.6l28.354-98.072H686.362l28.483,98.072v.01ZM545.972,432.944l52.96-183.024h.895l52.961,183.024Z" transform="translate(2731.521 -109.529)" fill="#356bb2"/><path d="M321.636,118.1c-159.745,0-236.918,28.1-247.805,172.294-2.665,34.294-3.2,69.542-3.2,102.065.049,32.632.541,67.85,3.2,102.163C84.718,638.768,161.9,666.915,321.636,666.915s236.957-28.137,247.9-172.294c2.606-34.294,3.108-69.512,3.108-102.163.039-32.533-.511-67.781-3.108-102.065C558.594,146.2,481.382,118.1,321.636,118.1ZM420.731,451.6c-4,81.765-36.28,91.325-99.094,91.325-62.765,0-95.053-9.56-99.095-91.325-.629-12.736-1.357-29.957-1.357-59.146,0-29.091.718-46.3,1.357-59.047,4.042-81.766,36.32-91.3,99.095-91.3,62.814,0,95.082,9.53,99.094,91.3.629,12.755,1.416,29.947,1.416,59.047C422.137,421.647,421.37,438.868,420.731,451.6Z" transform="translate(454.941 -118.099)" fill="#356bb2"/><path d="M17.194,251.153H175.562V648.829H333.97V251.153H492.338V119.093H17.194Z" transform="translate(-17.194 -109.317)" fill="#356bb2"/><rect width="150.343" height="529.766" transform="translate(2280.284 9.53)" fill="#356bb2"/><path d="M510.8,312.487H337.123V119.068H187.636V648.845H337.123V444.538H510.8V648.845H660.253V119.068H510.8Z" transform="translate(1488.611 -109.538)" fill="#356bb2"/><path d="M639.1,371.937c-.009,0-.02,0-.029.02v-.02h.029c66.572-17.014,86.083-56.8,86.083-114.289,0-116.423-73.229-138.581-177.388-138.581h-269.9V648.823H561.182c130.449,0,174.3-56.186,174.3-142.613C735.463,445.972,721.695,392.815,639.1,371.937ZM427.322,240.221h103.63c27.064,0,43.812,12.834,43.812,43.705,0,26.465-16.561,42.751-43.812,42.751H427.322Zm103.63,287.439H427.322V431.23h103.63c41.9,0,50.609,18.332,50.609,48.171C581.569,509.278,565.185,527.659,530.951,527.659Z" transform="translate(2286.013 -109.547)" fill="#356bb2"/><path d="M526.975,358.013c-37.283-21.99-141.875-25.344-194.953-28.737-38.64-2.5-53.353-16.729-53.353-50.767,0-44.62,42.486-46.272,79.238-46.272,30.34,0,51.386,2.763,66.148,15.854,5.714,5.8,12.736,14.614,13,45.81H579.2c0-61.191-1.937-127.163-68.075-157.63-52.586-24.223-248.031-24.223-297.834,0-48.269,23.475-81.716,57.11-81.716,153,0,56.382,14.949,98.092,43.764,119.482,42.28,31.412,83.339,34.628,196.891,40.647,45.79,2.439,70.6,11.409,70.6,50.786,0,49.9-44.4,49.9-84.913,49.9-42.1,0-54.79-3.531-68.981-14.212-12.48-9.49-15.775-26.662-15.892-52.36H130.538c0,72.983,1.407,132.847,70.279,162.873,61.546,26.957,250.874,26.957,307.551,1.937,49.124-21.705,84.411-50.648,84.411-149.31C592.8,430.77,579.246,388.933,526.975,358.013Z" transform="translate(984.167 -118.066)" fill="#356bb2"/></g></g></svg>