<svg xmlns="http://www.w3.org/2000/svg" xmlns:xlink="http://www.w3.org/1999/xlink" width="688" height="489" viewBox="0 0 688 489"><defs><clipPath id="b"><rect width="688" height="489"/></clipPath></defs><g id="a" clip-path="url(#b)"><g transform="translate(41 -71)"><path d="M0,0H620.373V620.373H0Z" fill="none"/><path d="M285.338,4.5C156.093,4.5,45.719,84.89,1,198.367,45.719,311.843,156.093,392.233,285.338,392.233s239.619-80.39,284.338-193.867C524.957,84.89,414.582,4.5,285.338,4.5Zm0,323.111A129.244,129.244,0,1,1,414.582,198.367,129.292,129.292,0,0,1,285.338,327.611Zm0-206.791a77.547,77.547,0,1,0,77.547,77.547A77.443,77.443,0,0,0,285.338,120.82Z" transform="translate(24.849 111.82)" fill="#1b94ed"/></g></g></svg>